<mxfile host="Electron" modified="2024-01-13T11:43:21.690Z" agent="Mozilla/5.0 (Windows NT 10.0; Win64; x64) AppleWebKit/537.36 (KHTML, like Gecko) draw.io/22.1.16 Chrome/120.0.6099.109 Electron/28.1.0 Safari/537.36" etag="2gPx9t5QA4pNiAvKytCp" version="22.1.16" type="device">
  <diagram name="Page-1" id="XLxIXfoqBBUXvLyNZZXf">
    <mxGraphModel dx="1036" dy="654" grid="1" gridSize="10" guides="1" tooltips="1" connect="1" arrows="1" fold="1" page="1" pageScale="1" pageWidth="827" pageHeight="1169" math="0" shadow="0">
      <root>
        <mxCell id="0" />
        <mxCell id="1" parent="0" />
        <mxCell id="-8HWN1AUEytgHQln095R-4" value="ContainerÂ (single instance)" style="swimlane;sketch=1;curveFitting=1;jiggle=2;fontFamily=Architects Daughter;startSize=23;fontSource=https%3A%2F%2Ffonts.googleapis.com%2Fcss%3Ffamily%3DArchitects%2BDaughter;" parent="1" vertex="1">
          <mxGeometry x="30" y="520" width="670" height="300" as="geometry" />
        </mxCell>
        <mxCell id="-8HWN1AUEytgHQln095R-10" value="&lt;font data-font-src=&quot;https://fonts.googleapis.com/css?family=Architects+Daughter&quot; face=&quot;Architects Daughter&quot;&gt;&lt;b&gt;Services&lt;/b&gt;&lt;/font&gt;" style="swimlane;fontStyle=0;childLayout=stackLayout;horizontal=1;startSize=26;fillColor=none;horizontalStack=0;resizeParent=1;resizeParentMax=0;resizeLast=0;collapsible=1;marginBottom=0;html=1;sketch=1;curveFitting=1;jiggle=2;" parent="-8HWN1AUEytgHQln095R-4" vertex="1">
          <mxGeometry x="30" y="228" width="140" height="52" as="geometry" />
        </mxCell>
        <mxCell id="-8HWN1AUEytgHQln095R-11" value="&lt;font data-font-src=&quot;https://fonts.googleapis.com/css?family=Architects+Daughter&quot; face=&quot;Architects Daughter&quot;&gt;accounts&lt;/font&gt;" style="text;strokeColor=none;fillColor=none;align=left;verticalAlign=top;spacingLeft=4;spacingRight=4;overflow=hidden;rotatable=0;points=[[0,0.5],[1,0.5]];portConstraint=eastwest;whiteSpace=wrap;html=1;" parent="-8HWN1AUEytgHQln095R-10" vertex="1">
          <mxGeometry y="26" width="140" height="26" as="geometry" />
        </mxCell>
        <mxCell id="-8HWN1AUEytgHQln095R-20" value="&lt;font data-font-src=&quot;https://fonts.googleapis.com/css?family=Architects+Daughter&quot; face=&quot;Architects Daughter&quot;&gt;&lt;b&gt;API&lt;/b&gt;&lt;/font&gt;" style="swimlane;fontStyle=0;childLayout=stackLayout;horizontal=1;startSize=26;fillColor=none;horizontalStack=0;resizeParent=1;resizeParentMax=0;resizeLast=0;collapsible=1;marginBottom=0;html=1;sketch=1;curveFitting=1;jiggle=2;" parent="-8HWN1AUEytgHQln095R-4" vertex="1">
          <mxGeometry x="30" y="40" width="140" height="78" as="geometry" />
        </mxCell>
        <mxCell id="-8HWN1AUEytgHQln095R-22" value="&lt;font data-font-src=&quot;https://fonts.googleapis.com/css?family=Architects+Daughter&quot; face=&quot;Architects Daughter&quot;&gt;Controlers&lt;/font&gt;" style="text;strokeColor=none;fillColor=none;align=left;verticalAlign=top;spacingLeft=4;spacingRight=4;overflow=hidden;rotatable=0;points=[[0,0.5],[1,0.5]];portConstraint=eastwest;whiteSpace=wrap;html=1;" parent="-8HWN1AUEytgHQln095R-20" vertex="1">
          <mxGeometry y="26" width="140" height="26" as="geometry" />
        </mxCell>
        <mxCell id="-8HWN1AUEytgHQln095R-23" value="&lt;font data-font-src=&quot;https://fonts.googleapis.com/css?family=Architects+Daughter&quot; face=&quot;Architects Daughter&quot;&gt;Models&lt;/font&gt;" style="text;strokeColor=none;fillColor=none;align=left;verticalAlign=top;spacingLeft=4;spacingRight=4;overflow=hidden;rotatable=0;points=[[0,0.5],[1,0.5]];portConstraint=eastwest;whiteSpace=wrap;html=1;" parent="-8HWN1AUEytgHQln095R-20" vertex="1">
          <mxGeometry y="52" width="140" height="26" as="geometry" />
        </mxCell>
        <mxCell id="-8HWN1AUEytgHQln095R-24" value="" style="edgeStyle=orthogonalEdgeStyle;sourcePerimeterSpacing=0;targetPerimeterSpacing=0;startArrow=none;endArrow=none;rounded=0;targetPortConstraint=eastwest;sourcePortConstraint=northsouth;curved=0;rounded=0;" parent="-8HWN1AUEytgHQln095R-4" target="-8HWN1AUEytgHQln095R-26" edge="1">
          <mxGeometry relative="1" as="geometry">
            <mxPoint x="100" y="144" as="sourcePoint" />
          </mxGeometry>
        </mxCell>
        <mxCell id="-8HWN1AUEytgHQln095R-25" value="" style="edgeStyle=orthogonalEdgeStyle;sourcePerimeterSpacing=0;targetPerimeterSpacing=0;startArrow=none;endArrow=none;rounded=0;targetPortConstraint=eastwest;sourcePortConstraint=northsouth;curved=0;rounded=0;" parent="-8HWN1AUEytgHQln095R-4" edge="1">
          <mxGeometry relative="1" as="geometry">
            <mxPoint x="100" y="120" as="sourcePoint" />
            <mxPoint x="110" y="176.79999999999995" as="targetPoint" />
            <Array as="points">
              <mxPoint x="99" y="120" />
              <mxPoint x="100" y="120" />
              <mxPoint x="100" y="177" />
            </Array>
          </mxGeometry>
        </mxCell>
        <mxCell id="-8HWN1AUEytgHQln095R-26" value="&lt;font data-font-src=&quot;https://fonts.googleapis.com/css?family=Architects+Daughter&quot; face=&quot;Architects Daughter&quot;&gt;Libraries&lt;br&gt;(accounts)&lt;br&gt;&lt;/font&gt;" style="whiteSpace=wrap;html=1;align=center;verticalAlign=middle;treeFolding=1;treeMoving=1;" parent="-8HWN1AUEytgHQln095R-4" vertex="1">
          <mxGeometry x="10" y="153.8" width="80" height="46" as="geometry" />
        </mxCell>
        <mxCell id="-8HWN1AUEytgHQln095R-27" value="&lt;font data-font-src=&quot;https://fonts.googleapis.com/css?family=Architects+Daughter&quot; face=&quot;Architects Daughter&quot;&gt;DB Schema&lt;br&gt;(accounts)&lt;br&gt;&lt;/font&gt;" style="whiteSpace=wrap;html=1;align=center;verticalAlign=middle;treeFolding=1;treeMoving=1;" parent="-8HWN1AUEytgHQln095R-4" vertex="1">
          <mxGeometry x="110" y="153.8" width="80" height="46" as="geometry" />
        </mxCell>
        <mxCell id="nvzTRVgqq8Lr9meVyyNI-186" value="&lt;font data-font-src=&quot;https://fonts.googleapis.com/css?family=Architects+Daughter&quot; face=&quot;Architects Daughter&quot;&gt;&lt;b&gt;Services&lt;/b&gt;&lt;/font&gt;" style="swimlane;fontStyle=0;childLayout=stackLayout;horizontal=1;startSize=26;fillColor=none;horizontalStack=0;resizeParent=1;resizeParentMax=0;resizeLast=0;collapsible=1;marginBottom=0;html=1;sketch=1;curveFitting=1;jiggle=2;" vertex="1" parent="-8HWN1AUEytgHQln095R-4">
          <mxGeometry x="490" y="228" width="140" height="52" as="geometry" />
        </mxCell>
        <mxCell id="nvzTRVgqq8Lr9meVyyNI-187" value="&lt;font data-font-src=&quot;https://fonts.googleapis.com/css?family=Architects+Daughter&quot; face=&quot;Architects Daughter&quot;&gt;orders&lt;/font&gt;" style="text;strokeColor=none;fillColor=none;align=left;verticalAlign=top;spacingLeft=4;spacingRight=4;overflow=hidden;rotatable=0;points=[[0,0.5],[1,0.5]];portConstraint=eastwest;whiteSpace=wrap;html=1;" vertex="1" parent="nvzTRVgqq8Lr9meVyyNI-186">
          <mxGeometry y="26" width="140" height="26" as="geometry" />
        </mxCell>
        <mxCell id="nvzTRVgqq8Lr9meVyyNI-188" value="&lt;font data-font-src=&quot;https://fonts.googleapis.com/css?family=Architects+Daughter&quot; face=&quot;Architects Daughter&quot;&gt;&lt;b&gt;API&lt;/b&gt;&lt;/font&gt;" style="swimlane;fontStyle=0;childLayout=stackLayout;horizontal=1;startSize=26;fillColor=none;horizontalStack=0;resizeParent=1;resizeParentMax=0;resizeLast=0;collapsible=1;marginBottom=0;html=1;sketch=1;curveFitting=1;jiggle=2;" vertex="1" parent="-8HWN1AUEytgHQln095R-4">
          <mxGeometry x="490" y="40" width="140" height="78" as="geometry" />
        </mxCell>
        <mxCell id="nvzTRVgqq8Lr9meVyyNI-189" value="&lt;font data-font-src=&quot;https://fonts.googleapis.com/css?family=Architects+Daughter&quot; face=&quot;Architects Daughter&quot;&gt;Controlers&lt;/font&gt;" style="text;strokeColor=none;fillColor=none;align=left;verticalAlign=top;spacingLeft=4;spacingRight=4;overflow=hidden;rotatable=0;points=[[0,0.5],[1,0.5]];portConstraint=eastwest;whiteSpace=wrap;html=1;" vertex="1" parent="nvzTRVgqq8Lr9meVyyNI-188">
          <mxGeometry y="26" width="140" height="26" as="geometry" />
        </mxCell>
        <mxCell id="nvzTRVgqq8Lr9meVyyNI-190" value="&lt;font data-font-src=&quot;https://fonts.googleapis.com/css?family=Architects+Daughter&quot; face=&quot;Architects Daughter&quot;&gt;Models&lt;/font&gt;" style="text;strokeColor=none;fillColor=none;align=left;verticalAlign=top;spacingLeft=4;spacingRight=4;overflow=hidden;rotatable=0;points=[[0,0.5],[1,0.5]];portConstraint=eastwest;whiteSpace=wrap;html=1;" vertex="1" parent="nvzTRVgqq8Lr9meVyyNI-188">
          <mxGeometry y="52" width="140" height="26" as="geometry" />
        </mxCell>
        <mxCell id="nvzTRVgqq8Lr9meVyyNI-191" value="" style="edgeStyle=orthogonalEdgeStyle;sourcePerimeterSpacing=0;targetPerimeterSpacing=0;startArrow=none;endArrow=none;rounded=0;targetPortConstraint=eastwest;sourcePortConstraint=northsouth;curved=0;rounded=0;" edge="1" parent="-8HWN1AUEytgHQln095R-4" target="nvzTRVgqq8Lr9meVyyNI-193">
          <mxGeometry relative="1" as="geometry">
            <mxPoint x="560" y="144" as="sourcePoint" />
          </mxGeometry>
        </mxCell>
        <mxCell id="nvzTRVgqq8Lr9meVyyNI-192" value="" style="edgeStyle=orthogonalEdgeStyle;sourcePerimeterSpacing=0;targetPerimeterSpacing=0;startArrow=none;endArrow=none;rounded=0;targetPortConstraint=eastwest;sourcePortConstraint=northsouth;curved=0;rounded=0;" edge="1" parent="-8HWN1AUEytgHQln095R-4">
          <mxGeometry relative="1" as="geometry">
            <mxPoint x="560" y="120" as="sourcePoint" />
            <mxPoint x="570" y="176.79999999999995" as="targetPoint" />
            <Array as="points">
              <mxPoint x="559" y="120" />
              <mxPoint x="560" y="120" />
              <mxPoint x="560" y="177" />
            </Array>
          </mxGeometry>
        </mxCell>
        <mxCell id="nvzTRVgqq8Lr9meVyyNI-193" value="&lt;font data-font-src=&quot;https://fonts.googleapis.com/css?family=Architects+Daughter&quot; face=&quot;Architects Daughter&quot;&gt;Libraries&lt;br&gt;(accounts)&lt;br&gt;&lt;/font&gt;" style="whiteSpace=wrap;html=1;align=center;verticalAlign=middle;treeFolding=1;treeMoving=1;" vertex="1" parent="-8HWN1AUEytgHQln095R-4">
          <mxGeometry x="470" y="153.79999999999995" width="80" height="46" as="geometry" />
        </mxCell>
        <mxCell id="nvzTRVgqq8Lr9meVyyNI-194" value="&lt;font data-font-src=&quot;https://fonts.googleapis.com/css?family=Architects+Daughter&quot; face=&quot;Architects Daughter&quot;&gt;DB Schema&lt;br&gt;(accounts)&lt;br&gt;&lt;/font&gt;" style="whiteSpace=wrap;html=1;align=center;verticalAlign=middle;treeFolding=1;treeMoving=1;" vertex="1" parent="-8HWN1AUEytgHQln095R-4">
          <mxGeometry x="570" y="153.79999999999995" width="80" height="46" as="geometry" />
        </mxCell>
        <mxCell id="-8HWN1AUEytgHQln095R-9" style="rounded=1;orthogonalLoop=1;jettySize=auto;html=1;entryX=0.5;entryY=0;entryDx=0;entryDy=0;dashed=1;sketch=1;curveFitting=1;jiggle=2;" parent="1" target="-8HWN1AUEytgHQln095R-3" edge="1">
          <mxGeometry relative="1" as="geometry">
            <mxPoint x="130" y="820" as="sourcePoint" />
          </mxGeometry>
        </mxCell>
        <mxCell id="-8HWN1AUEytgHQln095R-3" value="&lt;font data-font-src=&quot;https://fonts.googleapis.com/css?family=Architects+Daughter&quot; face=&quot;Architects Daughter&quot;&gt;&lt;b&gt;DB&lt;/b&gt;&lt;br&gt;accounts&lt;br&gt;&lt;/font&gt;" style="shape=datastore;whiteSpace=wrap;html=1;sketch=1;curveFitting=1;jiggle=2;" parent="1" vertex="1">
          <mxGeometry x="100" y="860" width="60" height="60" as="geometry" />
        </mxCell>
        <mxCell id="nvzTRVgqq8Lr9meVyyNI-118" style="rounded=1;orthogonalLoop=1;jettySize=auto;html=1;entryX=0.5;entryY=0;entryDx=0;entryDy=0;dashed=1;sketch=1;curveFitting=1;jiggle=2;exitX=0.5;exitY=1;exitDx=0;exitDy=0;" edge="1" parent="1" target="nvzTRVgqq8Lr9meVyyNI-119">
          <mxGeometry relative="1" as="geometry">
            <mxPoint x="370" y="820" as="sourcePoint" />
          </mxGeometry>
        </mxCell>
        <mxCell id="nvzTRVgqq8Lr9meVyyNI-119" value="&lt;font data-font-src=&quot;https://fonts.googleapis.com/css?family=Architects+Daughter&quot; face=&quot;Architects Daughter&quot;&gt;&lt;b&gt;DB&lt;/b&gt;&lt;br&gt;products&lt;br&gt;&lt;/font&gt;" style="shape=datastore;whiteSpace=wrap;html=1;sketch=1;curveFitting=1;jiggle=2;" vertex="1" parent="1">
          <mxGeometry x="340" y="860" width="60" height="60" as="geometry" />
        </mxCell>
        <mxCell id="nvzTRVgqq8Lr9meVyyNI-130" style="rounded=1;orthogonalLoop=1;jettySize=auto;html=1;entryX=0.5;entryY=0;entryDx=0;entryDy=0;dashed=1;sketch=1;curveFitting=1;jiggle=2;exitX=0.5;exitY=1;exitDx=0;exitDy=0;" edge="1" parent="1" target="nvzTRVgqq8Lr9meVyyNI-131">
          <mxGeometry relative="1" as="geometry">
            <mxPoint x="590" y="820" as="sourcePoint" />
          </mxGeometry>
        </mxCell>
        <mxCell id="nvzTRVgqq8Lr9meVyyNI-131" value="&lt;font face=&quot;Architects Daughter&quot;&gt;&lt;b&gt;DB&lt;/b&gt;&lt;br&gt;orders&lt;br&gt;&lt;/font&gt;" style="shape=datastore;whiteSpace=wrap;html=1;sketch=1;curveFitting=1;jiggle=2;" vertex="1" parent="1">
          <mxGeometry x="560" y="860" width="60" height="60" as="geometry" />
        </mxCell>
        <mxCell id="nvzTRVgqq8Lr9meVyyNI-135" value="Container (single instance)" style="swimlane;sketch=1;hachureGap=4;jiggle=2;curveFitting=1;fontFamily=Architects Daughter;fontSource=https%3A%2F%2Ffonts.googleapis.com%2Fcss%3Ffamily%3DArchitects%2BDaughter;fontSize=12;startSize=23;" vertex="1" parent="1">
          <mxGeometry x="204" y="380" width="326" height="70" as="geometry" />
        </mxCell>
        <mxCell id="nvzTRVgqq8Lr9meVyyNI-136" value="&lt;font style=&quot;font-size: 12px;&quot;&gt;&lt;b&gt;Frontend (e.g., React &amp;amp; React Native)&lt;/b&gt;&lt;/font&gt;" style="text;html=1;align=center;verticalAlign=middle;resizable=0;points=[];autosize=1;strokeColor=none;fillColor=none;fontSize=20;fontFamily=Architects Daughter;" vertex="1" parent="nvzTRVgqq8Lr9meVyyNI-135">
          <mxGeometry x="10" y="20" width="230" height="40" as="geometry" />
        </mxCell>
        <mxCell id="nvzTRVgqq8Lr9meVyyNI-150" value="" style="endArrow=none;dashed=1;html=1;rounded=0;sketch=1;hachureGap=4;jiggle=2;curveFitting=1;fontFamily=Architects Daughter;fontSource=https%3A%2F%2Ffonts.googleapis.com%2Fcss%3Ffamily%3DArchitects%2BDaughter;fontSize=16;exitX=1;exitY=0;exitDx=0;exitDy=0;entryX=0.5;entryY=1;entryDx=0;entryDy=0;" edge="1" parent="1" source="-8HWN1AUEytgHQln095R-20" target="nvzTRVgqq8Lr9meVyyNI-135">
          <mxGeometry width="50" height="50" relative="1" as="geometry">
            <mxPoint x="390" y="640" as="sourcePoint" />
            <mxPoint x="259.96000000000004" y="449" as="targetPoint" />
          </mxGeometry>
        </mxCell>
        <mxCell id="nvzTRVgqq8Lr9meVyyNI-151" value="" style="endArrow=none;dashed=1;html=1;rounded=0;sketch=1;hachureGap=4;jiggle=2;curveFitting=1;fontFamily=Architects Daughter;fontSource=https%3A%2F%2Ffonts.googleapis.com%2Fcss%3Ffamily%3DArchitects%2BDaughter;fontSize=16;exitX=0.5;exitY=0;exitDx=0;exitDy=0;" edge="1" parent="1">
          <mxGeometry width="50" height="50" relative="1" as="geometry">
            <mxPoint x="369.5" y="560" as="sourcePoint" />
            <mxPoint x="370.5" y="450" as="targetPoint" />
          </mxGeometry>
        </mxCell>
        <mxCell id="nvzTRVgqq8Lr9meVyyNI-152" value="" style="endArrow=none;dashed=1;html=1;rounded=0;sketch=1;hachureGap=4;jiggle=2;curveFitting=1;fontFamily=Architects Daughter;fontSource=https%3A%2F%2Ffonts.googleapis.com%2Fcss%3Ffamily%3DArchitects%2BDaughter;fontSize=16;exitX=0;exitY=0;exitDx=0;exitDy=0;" edge="1" parent="1" source="nvzTRVgqq8Lr9meVyyNI-188">
          <mxGeometry width="50" height="50" relative="1" as="geometry">
            <mxPoint x="530" y="520" as="sourcePoint" />
            <mxPoint x="370" y="450" as="targetPoint" />
          </mxGeometry>
        </mxCell>
        <mxCell id="nvzTRVgqq8Lr9meVyyNI-177" value="&lt;font data-font-src=&quot;https://fonts.googleapis.com/css?family=Architects+Daughter&quot; face=&quot;Architects Daughter&quot;&gt;&lt;b&gt;Services&lt;/b&gt;&lt;/font&gt;" style="swimlane;fontStyle=0;childLayout=stackLayout;horizontal=1;startSize=26;fillColor=none;horizontalStack=0;resizeParent=1;resizeParentMax=0;resizeLast=0;collapsible=1;marginBottom=0;html=1;sketch=1;curveFitting=1;jiggle=2;" vertex="1" parent="1">
          <mxGeometry x="300" y="748" width="140" height="52" as="geometry" />
        </mxCell>
        <mxCell id="nvzTRVgqq8Lr9meVyyNI-178" value="&lt;font data-font-src=&quot;https://fonts.googleapis.com/css?family=Architects+Daughter&quot; face=&quot;Architects Daughter&quot;&gt;products&lt;/font&gt;" style="text;strokeColor=none;fillColor=none;align=left;verticalAlign=top;spacingLeft=4;spacingRight=4;overflow=hidden;rotatable=0;points=[[0,0.5],[1,0.5]];portConstraint=eastwest;whiteSpace=wrap;html=1;" vertex="1" parent="nvzTRVgqq8Lr9meVyyNI-177">
          <mxGeometry y="26" width="140" height="26" as="geometry" />
        </mxCell>
        <mxCell id="nvzTRVgqq8Lr9meVyyNI-179" value="&lt;font data-font-src=&quot;https://fonts.googleapis.com/css?family=Architects+Daughter&quot; face=&quot;Architects Daughter&quot;&gt;&lt;b&gt;API&lt;/b&gt;&lt;/font&gt;" style="swimlane;fontStyle=0;childLayout=stackLayout;horizontal=1;startSize=26;fillColor=none;horizontalStack=0;resizeParent=1;resizeParentMax=0;resizeLast=0;collapsible=1;marginBottom=0;html=1;sketch=1;curveFitting=1;jiggle=2;" vertex="1" parent="1">
          <mxGeometry x="300" y="560" width="140" height="78" as="geometry" />
        </mxCell>
        <mxCell id="nvzTRVgqq8Lr9meVyyNI-180" value="&lt;font data-font-src=&quot;https://fonts.googleapis.com/css?family=Architects+Daughter&quot; face=&quot;Architects Daughter&quot;&gt;Controlers&lt;/font&gt;" style="text;strokeColor=none;fillColor=none;align=left;verticalAlign=top;spacingLeft=4;spacingRight=4;overflow=hidden;rotatable=0;points=[[0,0.5],[1,0.5]];portConstraint=eastwest;whiteSpace=wrap;html=1;" vertex="1" parent="nvzTRVgqq8Lr9meVyyNI-179">
          <mxGeometry y="26" width="140" height="26" as="geometry" />
        </mxCell>
        <mxCell id="nvzTRVgqq8Lr9meVyyNI-181" value="&lt;font data-font-src=&quot;https://fonts.googleapis.com/css?family=Architects+Daughter&quot; face=&quot;Architects Daughter&quot;&gt;Models&lt;/font&gt;" style="text;strokeColor=none;fillColor=none;align=left;verticalAlign=top;spacingLeft=4;spacingRight=4;overflow=hidden;rotatable=0;points=[[0,0.5],[1,0.5]];portConstraint=eastwest;whiteSpace=wrap;html=1;" vertex="1" parent="nvzTRVgqq8Lr9meVyyNI-179">
          <mxGeometry y="52" width="140" height="26" as="geometry" />
        </mxCell>
        <mxCell id="nvzTRVgqq8Lr9meVyyNI-182" value="" style="edgeStyle=orthogonalEdgeStyle;sourcePerimeterSpacing=0;targetPerimeterSpacing=0;startArrow=none;endArrow=none;rounded=0;targetPortConstraint=eastwest;sourcePortConstraint=northsouth;curved=0;rounded=0;" edge="1" parent="1" target="nvzTRVgqq8Lr9meVyyNI-184">
          <mxGeometry relative="1" as="geometry">
            <mxPoint x="370" y="664" as="sourcePoint" />
          </mxGeometry>
        </mxCell>
        <mxCell id="nvzTRVgqq8Lr9meVyyNI-183" value="" style="edgeStyle=orthogonalEdgeStyle;sourcePerimeterSpacing=0;targetPerimeterSpacing=0;startArrow=none;endArrow=none;rounded=0;targetPortConstraint=eastwest;sourcePortConstraint=northsouth;curved=0;rounded=0;" edge="1" parent="1">
          <mxGeometry relative="1" as="geometry">
            <mxPoint x="370" y="640" as="sourcePoint" />
            <mxPoint x="380" y="696.8" as="targetPoint" />
            <Array as="points">
              <mxPoint x="369" y="640" />
              <mxPoint x="370" y="640" />
              <mxPoint x="370" y="697" />
            </Array>
          </mxGeometry>
        </mxCell>
        <mxCell id="nvzTRVgqq8Lr9meVyyNI-184" value="&lt;font data-font-src=&quot;https://fonts.googleapis.com/css?family=Architects+Daughter&quot; face=&quot;Architects Daughter&quot;&gt;Libraries&lt;br&gt;(accounts)&lt;br&gt;&lt;/font&gt;" style="whiteSpace=wrap;html=1;align=center;verticalAlign=middle;treeFolding=1;treeMoving=1;" vertex="1" parent="1">
          <mxGeometry x="280" y="673.8" width="80" height="46" as="geometry" />
        </mxCell>
        <mxCell id="nvzTRVgqq8Lr9meVyyNI-185" value="&lt;font data-font-src=&quot;https://fonts.googleapis.com/css?family=Architects+Daughter&quot; face=&quot;Architects Daughter&quot;&gt;DB Schema&lt;br&gt;(accounts)&lt;br&gt;&lt;/font&gt;" style="whiteSpace=wrap;html=1;align=center;verticalAlign=middle;treeFolding=1;treeMoving=1;" vertex="1" parent="1">
          <mxGeometry x="380" y="673.8" width="80" height="46" as="geometry" />
        </mxCell>
      </root>
    </mxGraphModel>
  </diagram>
</mxfile>
